<svg width="33" height="33" viewBox="0 0 33 33" fill="none" xmlns="http://www.w3.org/2000/svg">
<path d="M5.67188 11.9063C4.84345 11.9063 4.17188 12.5778 4.17188 13.4063C4.17188 14.2347 4.84345 14.9063 5.67188 14.9063V13.4063V11.9063ZM27.3281 14.9063C28.1566 14.9063 28.8281 14.2347 28.8281 13.4063C28.8281 12.5778 28.1566 11.9063 27.3281 11.9063V13.4063V14.9063ZM5.80178 18.8671C4.97336 18.8671 4.30178 19.5386 4.30178 20.3671C4.30178 21.1955 4.97336 21.8671 5.80178 21.8671V20.3671V18.8671ZM27.458 21.8671C28.2865 21.8671 28.958 21.1955 28.958 20.3671C28.958 19.5386 28.2865 18.8671 27.458 18.8671V20.3671V21.8671ZM28.875 16.5H27.375C27.375 22.5061 22.5061 27.375 16.5 27.375V28.875V30.375C24.163 30.375 30.375 24.163 30.375 16.5H28.875ZM16.5 28.875V27.375C10.4939 27.375 5.625 22.5061 5.625 16.5H4.125H2.625C2.625 24.163 8.83705 30.375 16.5 30.375V28.875ZM4.125 16.5H5.625C5.625 10.4939 10.4939 5.625 16.5 5.625V4.125V2.625C8.83705 2.625 2.625 8.83705 2.625 16.5H4.125ZM16.5 4.125V5.625C22.5061 5.625 27.375 10.4939 27.375 16.5H28.875H30.375C30.375 8.83705 24.163 2.625 16.5 2.625V4.125ZM16.5 28.875V27.375C16.2488 27.375 15.8912 27.2649 15.4352 26.8241C14.972 26.3763 14.4863 25.6558 14.0459 24.6492C13.1671 22.6404 12.5859 19.7604 12.5859 16.5H11.0859H9.58594C9.58594 20.0741 10.2168 23.3816 11.2974 25.8517C11.8368 27.0845 12.5178 28.1763 13.35 28.9809C14.1895 29.7925 15.2562 30.375 16.5 30.375V28.875ZM11.0859 16.5H12.5859C12.5859 13.2396 13.1671 10.3596 14.0459 8.35078C14.4863 7.34416 14.972 6.62374 15.4352 6.17591C15.8912 5.73507 16.2488 5.625 16.5 5.625V4.125V2.625C15.2562 2.625 14.1895 3.20749 13.35 4.01906C12.5178 4.82366 11.8368 5.91551 11.2974 7.14833C10.2168 9.61841 9.58594 12.9259 9.58594 16.5H11.0859ZM16.5 28.875V30.375C17.7438 30.375 18.8105 29.7925 19.65 28.9809C20.4822 28.1763 21.1632 27.0845 21.7026 25.8517C22.7832 23.3816 23.4141 20.0741 23.4141 16.5H21.9141H20.4141C20.4141 19.7604 19.8329 22.6404 18.9541 24.6492C18.5137 25.6558 18.028 26.3763 17.5648 26.8241C17.1088 27.2649 16.7512 27.375 16.5 27.375V28.875ZM21.9141 16.5H23.4141C23.4141 12.9259 22.7832 9.61841 21.7026 7.14833C21.1632 5.91551 20.4822 4.82366 19.65 4.01907C18.8105 3.20749 17.7438 2.625 16.5 2.625V4.125V5.625C16.7512 5.625 17.1088 5.73507 17.5648 6.17591C18.028 6.62374 18.5137 7.34416 18.9541 8.35078C19.8329 10.3596 20.4141 13.2396 20.4141 16.5H21.9141ZM5.67188 13.4063V14.9063H27.3281V13.4063V11.9063H5.67188V13.4063ZM5.80178 20.3671V21.8671H27.458V20.3671V18.8671H5.80178V20.3671Z" fill="#251E1C"/>
</svg>
