<svg width="33" height="33" viewBox="0 0 33 33" fill="none" xmlns="http://www.w3.org/2000/svg">
<path d="M5.67188 12.4062C5.11959 12.4062 4.67188 12.854 4.67188 13.4062C4.67188 13.9585 5.11959 14.4062 5.67188 14.4062V13.4062V12.4062ZM27.3281 14.4062C27.8804 14.4062 28.3281 13.9585 28.3281 13.4062C28.3281 12.854 27.8804 12.4062 27.3281 12.4062V13.4062V14.4062ZM5.80178 19.3671C5.2495 19.3671 4.80178 19.8148 4.80178 20.3671C4.80178 20.9193 5.2495 21.3671 5.80178 21.3671V20.3671V19.3671ZM27.458 21.3671C28.0103 21.3671 28.458 20.9193 28.458 20.3671C28.458 19.8148 28.0103 19.3671 27.458 19.3671V20.3671V21.3671ZM28.875 16.5H27.875C27.875 22.7822 22.7822 27.875 16.5 27.875V28.875V29.875C23.8868 29.875 29.875 23.8868 29.875 16.5H28.875ZM16.5 28.875V27.875C10.2178 27.875 5.125 22.7822 5.125 16.5H4.125H3.125C3.125 23.8868 9.11319 29.875 16.5 29.875V28.875ZM4.125 16.5H5.125C5.125 10.2178 10.2178 5.125 16.5 5.125V4.125V3.125C9.11319 3.125 3.125 9.11319 3.125 16.5H4.125ZM16.5 4.125V5.125C22.7822 5.125 27.875 10.2178 27.875 16.5H28.875H29.875C29.875 9.11319 23.8868 3.125 16.5 3.125V4.125ZM16.5 28.875V27.875C16.0833 27.875 15.6076 27.6862 15.0877 27.1836C14.5629 26.6763 14.0447 25.8939 13.5878 24.8496C12.6754 22.764 12.0859 19.8127 12.0859 16.5H11.0859H10.0859C10.0859 20.0218 10.7085 23.2581 11.7555 25.6513C12.2784 26.8464 12.9268 27.8763 13.6975 28.6215C14.4731 29.3712 15.4216 29.875 16.5 29.875V28.875ZM11.0859 16.5H12.0859C12.0859 13.1873 12.6754 10.236 13.5878 8.15037C14.0447 7.10606 14.5629 6.32372 15.0877 5.81644C15.6076 5.3138 16.0833 5.125 16.5 5.125V4.125V3.125C15.4216 3.125 14.4731 3.62875 13.6975 4.37854C12.9268 5.12367 12.2784 6.15362 11.7555 7.34873C10.7085 9.74194 10.0859 12.9782 10.0859 16.5H11.0859ZM16.5 28.875V29.875C17.5784 29.875 18.5269 29.3712 19.3025 28.6215C20.0732 27.8763 20.7216 26.8464 21.2445 25.6513C22.2915 23.2581 22.9141 20.0218 22.9141 16.5H21.9141H20.9141C20.9141 19.8127 20.3246 22.764 19.4122 24.8496C18.9553 25.8939 18.4371 26.6763 17.9123 27.1836C17.3924 27.6862 16.9167 27.875 16.5 27.875V28.875ZM21.9141 16.5H22.9141C22.9141 12.9782 22.2915 9.74194 21.2445 7.34873C20.7216 6.15362 20.0732 5.12367 19.3025 4.37854C18.5269 3.62875 17.5784 3.125 16.5 3.125V4.125V5.125C16.9167 5.125 17.3924 5.3138 17.9123 5.81644C18.4371 6.32372 18.9553 7.10606 19.4122 8.15037C20.3246 10.236 20.9141 13.1873 20.9141 16.5H21.9141ZM5.67188 13.4062V14.4062H27.3281V13.4062V12.4062H5.67188V13.4062ZM5.80178 20.3671V21.3671H27.458V20.3671V19.3671H5.80178V20.3671Z" fill="#251E1C"/>
</svg>
