<svg width="76" height="76" viewBox="0 0 76 76" fill="none" xmlns="http://www.w3.org/2000/svg">
<path d="M41.5092 15.1364H48.0966V38.8935C48.0966 41.4976 47.4811 43.7881 46.25 45.7649C45.0308 47.7417 43.3144 49.2865 41.1009 50.3991C38.8873 51.5 36.3009 52.0504 33.3416 52.0504C30.3705 52.0504 27.7782 51.5 25.5646 50.3991C23.3511 49.2865 21.6347 47.7417 20.4155 45.7649C19.1963 43.7881 18.5866 41.4976 18.5866 38.8935V15.1364H25.174V38.343C25.174 39.8582 25.5054 41.2076 26.1683 42.3913C26.843 43.575 27.79 44.5043 29.0092 45.179C30.2285 45.8419 31.6726 46.1733 33.3416 46.1733C35.0107 46.1733 36.4548 45.8419 37.674 45.179C38.9051 44.5043 39.852 43.575 40.5149 42.3913C41.1778 41.2076 41.5092 39.8582 41.5092 38.343V15.1364Z" fill="#251E1C"/>
<path d="M41.9091 66H29.5866V29.6364H42.1577C45.768 29.6364 48.8693 30.3643 51.4616 31.8203C54.0658 33.2644 56.0663 35.3419 57.4631 38.0526C58.8598 40.7633 59.5582 44.0066 59.5582 47.7827C59.5582 51.5705 58.8539 54.8258 57.4453 57.5483C56.0485 60.2708 54.0303 62.3601 51.3906 63.8161C48.7628 65.272 45.6023 66 41.9091 66ZM36.174 60.3004H41.5895C44.1226 60.3004 46.2356 59.8388 47.9283 58.9155C49.621 57.9804 50.8935 56.5895 51.7457 54.7429C52.598 52.8845 53.0241 50.5644 53.0241 47.7827C53.0241 45.0009 52.598 42.6927 51.7457 40.858C50.8935 39.0114 49.6328 37.6323 47.9638 36.7209C46.3066 35.7976 44.2469 35.3359 41.7848 35.3359H36.174V60.3004Z" fill="#251E1C"/>
<circle cx="38" cy="38" r="35" stroke="#251E1C" stroke-width="6"/>
</svg>
